# xmcd CD database file
#
# Track frame offsets:
#	150
#	19185
#	38220
#	46690
#
# Disc length: 733 seconds
#
# Revision: 0
# Processed by: cddbd v1.5.2PL0 Copyright (c) Steve Scherf et al.
# Submitted via: CD2WAV32(JP) R3.22
#
DISCID=2602db04
DTITLE=RUNE SOFT - 雪のち、ふるるっ！　～ところにより、恋もよう～　初回特典　Original MAXI Single
DYEAR=2006
DGENRE=Game
TTITLE0=雪のワルツ
TTITLE1=雪のワルツ（カラオケ）
TTITLE2=雪のワルツ～妖精の子守歌～
TTITLE3=雪のワルツ～妖精の子守歌～（カラオケ）
EXTD=
EXTT0=歌唱：KIRIKO
EXTT1=
EXTT2=歌唱：KIRIKO
EXTT3=
PLAYORDER=
